<?xml version="1.0" encoding="utf-8"?>
<!-- Generator: Adobe Illustrator 23.0.2, SVG Export Plug-In . SVG Version: 6.00 Build 0)  -->
<svg width="98" height="18" xmlns="http://www.w3.org/2000/svg" xmlns:xlink="http://www.w3.org/1999/xlink"
	 x="0px" y="0px" viewBox="0 0 98 18" xml:space="preserve">
<path fill="#2F3035" d="M0.1,17.7c-0.1,0-0.1,0-0.1-0.1L0.1,0.4c0-0.1,0-0.1,0.1-0.1l4.7,0c0.9,0,1.8,0.2,2.5,0.7
	C8.1,1.4,8.7,2,9.2,2.7c0.5,0.8,0.7,1.6,0.7,2.5v7.2c0,1-0.2,1.9-0.7,2.7c-0.5,0.8-1.1,1.4-1.9,1.9c-0.8,0.5-1.7,0.7-2.7,0.7
	L0.1,17.7z M3.1,14.7h1.6c0.6,0,1.1-0.2,1.6-0.7c0.4-0.4,0.7-1,0.7-1.6V5.2c0-0.5-0.2-1-0.6-1.4C5.8,3.4,5.4,3.2,4.8,3.3l-1.8,0
	L3.1,14.7z M11.9,17.7c-0.1,0-0.1,0-0.1-0.1l0.1-17.2c0-0.1,0-0.1,0.1-0.1h5.1c0.9,0,1.7,0.2,2.5,0.7c0.8,0.4,1.4,1,1.8,1.8
	C21.8,3.5,22,4.3,22,5.2c0,0.6-0.1,1.2-0.3,1.7c-0.2,0.5-0.4,0.9-0.7,1.3c-0.3,0.3-0.5,0.6-0.7,0.8c0.9,1,1.4,2.2,1.4,3.5l0,5.1
	c0,0.1,0,0.1-0.1,0.1h-2.8c-0.1,0-0.1,0-0.1-0.1v-5.2c0-0.6-0.2-1.1-0.7-1.6c-0.4-0.5-0.9-0.7-1.6-0.7h-1.7l0,7.4
	c0,0.1,0,0.1-0.1,0.1H11.9z M14.9,7.2h2.2c0.5,0,1-0.2,1.4-0.6C18.8,6.3,19,5.8,19,5.2c0-0.5-0.2-1-0.6-1.4
	c-0.4-0.4-0.8-0.6-1.4-0.6h-2.2V7.2z M24.1,17.7c-0.1,0-0.1,0-0.1-0.1l0-17.2c0-0.1,0-0.1,0.1-0.1h2.8c0.1,0,0.1,0,0.1,0.1l0,17.2
	c0,0.1,0,0.1-0.1,0.1H24.1z M32,17.7c-0.1,0-0.1,0-0.1-0.1L28.4,0.4c0-0.1,0-0.1,0.1-0.1h2.8c0.1,0,0.1,0,0.1,0.1l2.1,11.5l2-11.5
	c0-0.1,0.1-0.1,0.1-0.1h2.8c0.1,0,0.1,0,0.1,0.1l-3.4,17.2c0,0.1-0.1,0.1-0.1,0.1H32z M40.2,17.7c-0.1,0-0.1,0-0.1-0.1l0-17.2
	c0-0.1,0-0.1,0.1-0.1h8.1c0.1,0,0.1,0,0.1,0.1v2.8c0,0.1,0,0.1-0.1,0.1h-5.1v3.9h5.1c0.1,0,0.1,0,0.1,0.1l0,2.8c0,0.1,0,0.1-0.1,0.1
	h-5.2v4.4h5.2c0.1,0,0.1,0,0.1,0.1v2.9c0,0.1,0,0.1-0.1,0.1H40.2z M54.4,17.7c-0.1,0-0.1,0-0.1-0.1l0.1-17.2c0-0.1,0-0.1,0.1-0.1
	h3.1c0.1,0,0.1,0,0.2,0.1L60,3.7l2.3-3.3c0.1-0.1,0.1-0.1,0.2-0.1h3.1c0.1,0,0.1,0,0.1,0.1l0.1,17.2c0,0.1,0,0.1-0.1,0.1h-2.8
	c-0.1,0-0.1,0-0.1-0.1l0-12.8L60,8.6l-2.6-3.8l0,12.8c0,0.1,0,0.1-0.1,0.1H54.4z M72.4,18c-0.9,0-1.7-0.2-2.5-0.7
	c-0.7-0.5-1.3-1.1-1.8-1.8c-0.5-0.8-0.7-1.6-0.7-2.5l0-8c0-0.9,0.2-1.8,0.7-2.5c0.5-0.8,1.1-1.4,1.8-1.8C70.7,0.2,71.6,0,72.4,0
	c0.9,0,1.7,0.2,2.5,0.7c0.7,0.5,1.3,1.1,1.8,1.8c0.5,0.8,0.7,1.6,0.7,2.5l0,8c0,0.9-0.2,1.8-0.7,2.5c-0.4,0.8-1,1.4-1.8,1.8
	C74.2,17.8,73.4,18,72.4,18z M72.4,15c0.5,0,0.9-0.2,1.3-0.6c0.4-0.4,0.6-0.9,0.6-1.4l0-8c0-0.6-0.2-1-0.5-1.4S73,3,72.4,3
	c-0.5,0-1,0.2-1.3,0.6C70.8,4,70.6,4.4,70.6,5v8c0,0.6,0.2,1,0.6,1.4C71.5,14.8,71.9,15,72.4,15z M81.5,17.7c-0.1,0-0.1,0-0.1-0.1
	V3.3h-3.3c-0.1,0-0.1,0-0.1-0.1l0-2.8c0-0.1,0-0.1,0.1-0.1h9.5c0.1,0,0.1,0,0.1,0.1v2.8c0,0.1,0,0.1-0.1,0.1h-3.3l0,14.3
	c0,0.1,0,0.1-0.1,0.1H81.5z M93.1,18c-0.9,0-1.7-0.2-2.5-0.7c-0.7-0.5-1.3-1.1-1.8-1.8c-0.5-0.8-0.7-1.6-0.7-2.5l0-8
	c0-0.9,0.2-1.8,0.7-2.5c0.5-0.8,1.1-1.4,1.8-1.8C91.4,0.2,92.2,0,93.1,0c0.9,0,1.7,0.2,2.5,0.7c0.7,0.5,1.3,1.1,1.8,1.8
	C97.7,3.2,98,4.1,98,5l0,8c0,0.9-0.2,1.8-0.7,2.5c-0.4,0.8-1,1.4-1.8,1.8C94.8,17.8,94,18,93.1,18z M93.1,15c0.5,0,0.9-0.2,1.3-0.6
	c0.4-0.4,0.6-0.9,0.6-1.4l0-8c0-0.6-0.2-1-0.5-1.4S93.6,3,93.1,3c-0.5,0-1,0.2-1.3,0.6C91.4,4,91.2,4.4,91.2,5v8
	c0,0.6,0.2,1,0.6,1.4C92.1,14.8,92.6,15,93.1,15z"/>
</svg>
